<mxfile>
    <diagram id="A-zxvVNkBxOgzproccFd" name="Seite-1">
        <mxGraphModel dx="662" dy="357" grid="0" gridSize="10" guides="1" tooltips="1" connect="1" arrows="1" fold="1" page="0" pageScale="1" pageWidth="827" pageHeight="1169" background="none" math="0" shadow="0">
            <root>
                <mxCell id="0"/>
                <mxCell id="1" parent="0"/>
                <mxCell id="hMF7HG-Jt5NQ6egZfnup-37" value="" style="rounded=0;whiteSpace=wrap;html=1;fillColor=#000000;direction=south;" parent="1" vertex="1">
                    <mxGeometry x="1080" y="610" width="310" height="50" as="geometry"/>
                </mxCell>
                <mxCell id="hMF7HG-Jt5NQ6egZfnup-36" value="" style="rounded=0;whiteSpace=wrap;html=1;fillColor=#000000;direction=south;" parent="1" vertex="1">
                    <mxGeometry x="1080" y="1310" width="310" height="50" as="geometry"/>
                </mxCell>
                <mxCell id="hMF7HG-Jt5NQ6egZfnup-32" value="" style="rounded=0;whiteSpace=wrap;html=1;fillColor=#000000;" parent="1" vertex="1">
                    <mxGeometry x="1560" y="150" width="50" height="310" as="geometry"/>
                </mxCell>
                <mxCell id="hMF7HG-Jt5NQ6egZfnup-31" value="" style="rounded=0;whiteSpace=wrap;html=1;fillColor=#000000;" parent="1" vertex="1">
                    <mxGeometry x="870" y="150" width="50" height="310" as="geometry"/>
                </mxCell>
                <mxCell id="LK2-ITjYSWJ4ELH8rmy3-1" value="" style="rounded=0;whiteSpace=wrap;html=1;fillColor=#000000;" parent="1" vertex="1">
                    <mxGeometry x="125" y="165" width="50" height="280" as="geometry"/>
                </mxCell>
                <mxCell id="hMF7HG-Jt5NQ6egZfnup-23" value="" style="rounded=1;whiteSpace=wrap;html=1;direction=south;fillColor=#000000;" parent="1" vertex="1">
                    <mxGeometry x="300.5" y="1130" width="270" height="50" as="geometry"/>
                </mxCell>
                <mxCell id="hMF7HG-Jt5NQ6egZfnup-24" value="" style="rounded=1;whiteSpace=wrap;html=1;direction=south;fillColor=#000000;" parent="1" vertex="1">
                    <mxGeometry x="300.5" y="620" width="270" height="50" as="geometry"/>
                </mxCell>
                <mxCell id="hMF7HG-Jt5NQ6egZfnup-21" value="" style="rounded=0;whiteSpace=wrap;html=1;direction=south;fillColor=#000000;" parent="1" vertex="1">
                    <mxGeometry x="295" y="1130" width="280.5" height="50" as="geometry"/>
                </mxCell>
                <mxCell id="hMF7HG-Jt5NQ6egZfnup-22" value="" style="rounded=0;whiteSpace=wrap;html=1;direction=south;fillColor=#000000;" parent="1" vertex="1">
                    <mxGeometry x="296" y="620" width="279.5" height="50" as="geometry"/>
                </mxCell>
                <mxCell id="LK2-ITjYSWJ4ELH8rmy3-2" value="" style="rounded=0;whiteSpace=wrap;html=1;fillColor=#000000;" parent="1" vertex="1">
                    <mxGeometry x="653" y="165" width="52" height="280" as="geometry"/>
                </mxCell>
                <mxCell id="tGzolJ6zgcAbNML8atJ1-1" value="&lt;font style=&quot;font-size: 18px&quot;&gt;Bild-schirm 16/9&lt;/font&gt;" style="text;html=1;strokeColor=none;fillColor=none;align=center;verticalAlign=middle;whiteSpace=wrap;rounded=0;" parent="1" vertex="1">
                    <mxGeometry x="394" y="30" width="40" height="20" as="geometry"/>
                </mxCell>
                <mxCell id="tGzolJ6zgcAbNML8atJ1-7" value="Gamingscreen" style="rounded=0;whiteSpace=wrap;html=1;shadow=0;aspect=fixed;fillColor=#2F29F0;strokeColor=#36393d;" parent="1" vertex="1">
                    <mxGeometry x="346.5" y="170" width="135" height="270" as="geometry"/>
                </mxCell>
                <mxCell id="tGzolJ6zgcAbNML8atJ1-13" value="ID/Nickname" style="rounded=0;whiteSpace=wrap;html=1;shadow=0;" parent="1" vertex="1">
                    <mxGeometry x="175" y="170" width="172" height="40" as="geometry"/>
                </mxCell>
                <mxCell id="tGzolJ6zgcAbNML8atJ1-14" value="Level/Speed" style="rounded=0;whiteSpace=wrap;html=1;shadow=0;" parent="1" vertex="1">
                    <mxGeometry x="174.5" y="210" width="172" height="40" as="geometry"/>
                </mxCell>
                <mxCell id="tGzolJ6zgcAbNML8atJ1-15" value="Next shapes" style="rounded=0;whiteSpace=wrap;html=1;shadow=0;" parent="1" vertex="1">
                    <mxGeometry x="174.5" y="250" width="172" height="60" as="geometry"/>
                </mxCell>
                <mxCell id="tGzolJ6zgcAbNML8atJ1-16" value="Highscores" style="rounded=0;whiteSpace=wrap;html=1;shadow=0;" parent="1" vertex="1">
                    <mxGeometry x="481.5" y="170" width="173" height="40" as="geometry"/>
                </mxCell>
                <mxCell id="tGzolJ6zgcAbNML8atJ1-19" value="" style="rounded=0;whiteSpace=wrap;html=1;shadow=0;" parent="1" vertex="1">
                    <mxGeometry x="174" y="309" width="172" height="130" as="geometry"/>
                </mxCell>
                <mxCell id="tGzolJ6zgcAbNML8atJ1-23" value="Shape mover" style="shape=cross;whiteSpace=wrap;html=1;shadow=1;fillColor=#6a00ff;strokeColor=#3700CC;fontColor=#ffffff;" parent="1" vertex="1">
                    <mxGeometry x="220.5" y="335" width="80" height="80" as="geometry"/>
                </mxCell>
                <mxCell id="tGzolJ6zgcAbNML8atJ1-25" value="rotate&lt;br&gt;left" style="rhombus;whiteSpace=wrap;html=1;shadow=1;aspect=fixed;rounded=1;fillColor=#fa6800;strokeColor=#C73500;fontColor=#ffffff;" parent="1" vertex="1">
                    <mxGeometry x="504" y="342.5" width="65" height="65" as="geometry"/>
                </mxCell>
                <mxCell id="tGzolJ6zgcAbNML8atJ1-26" value="rotate&lt;br&gt;right" style="rhombus;whiteSpace=wrap;html=1;shadow=1;aspect=fixed;rounded=1;fillColor=#fa6800;strokeColor=#C73500;fontColor=#ffffff;" parent="1" vertex="1">
                    <mxGeometry x="579" y="310" width="65" height="65" as="geometry"/>
                </mxCell>
                <mxCell id="tGzolJ6zgcAbNML8atJ1-28" value="Personal score/highscore" style="rounded=0;whiteSpace=wrap;html=1;shadow=0;" parent="1" vertex="1">
                    <mxGeometry x="481" y="210" width="173" height="40" as="geometry"/>
                </mxCell>
                <mxCell id="tGzolJ6zgcAbNML8atJ1-29" value="Pause/&lt;br&gt;settings" style="rounded=0;whiteSpace=wrap;html=1;shadow=1;fillColor=#f9f7ed;strokeColor=#36393d;" parent="1" vertex="1">
                    <mxGeometry x="584" y="410" width="70" height="30" as="geometry"/>
                </mxCell>
                <mxCell id="hMF7HG-Jt5NQ6egZfnup-2" value="Gamingscreen" style="rounded=0;whiteSpace=wrap;html=1;aspect=fixed;fillColor=#2F29F0;strokeColor=#36393d;" parent="1" vertex="1">
                    <mxGeometry x="300" y="660" width="175" height="350" as="geometry"/>
                </mxCell>
                <mxCell id="hMF7HG-Jt5NQ6egZfnup-3" value="Highsccores" style="rounded=0;whiteSpace=wrap;html=1;" parent="1" vertex="1">
                    <mxGeometry x="475.25" y="660" width="95" height="76" as="geometry"/>
                </mxCell>
                <mxCell id="hMF7HG-Jt5NQ6egZfnup-8" value="Next&lt;br&gt;shapes" style="rounded=0;whiteSpace=wrap;html=1;" parent="1" vertex="1">
                    <mxGeometry x="475.5" y="798" width="95" height="86" as="geometry"/>
                </mxCell>
                <mxCell id="hMF7HG-Jt5NQ6egZfnup-9" value="Personal &lt;br&gt;score/&lt;br&gt;highscore" style="rounded=0;whiteSpace=wrap;html=1;" parent="1" vertex="1">
                    <mxGeometry x="475.25" y="735" width="95" height="66" as="geometry"/>
                </mxCell>
                <mxCell id="hMF7HG-Jt5NQ6egZfnup-10" value="Level/Speed" style="rounded=0;whiteSpace=wrap;html=1;" parent="1" vertex="1">
                    <mxGeometry x="475.5" y="884" width="95" height="66" as="geometry"/>
                </mxCell>
                <mxCell id="hMF7HG-Jt5NQ6egZfnup-11" value="ID/Nickname" style="rounded=0;whiteSpace=wrap;html=1;" parent="1" vertex="1">
                    <mxGeometry x="475.5" y="950" width="95" height="60" as="geometry"/>
                </mxCell>
                <mxCell id="hMF7HG-Jt5NQ6egZfnup-15" value="Rotate&lt;br&gt;right" style="rhombus;whiteSpace=wrap;html=1;aspect=fixed;fillColor=#fa6800;strokeColor=#C73500;fontColor=#ffffff;rounded=1;shadow=1;" parent="1" vertex="1">
                    <mxGeometry x="505" y="1020" width="65" height="65" as="geometry"/>
                </mxCell>
                <mxCell id="hMF7HG-Jt5NQ6egZfnup-16" value="Rotate left" style="rhombus;whiteSpace=wrap;html=1;aspect=fixed;fillColor=#fa6800;strokeColor=#C73500;fontColor=#ffffff;rounded=1;shadow=1;" parent="1" vertex="1">
                    <mxGeometry x="435" y="1055" width="65" height="65" as="geometry"/>
                </mxCell>
                <mxCell id="hMF7HG-Jt5NQ6egZfnup-17" value="Pause/&lt;br&gt;Settings" style="rounded=0;whiteSpace=wrap;html=1;fillColor=#f9f7ed;strokeColor=#36393d;shadow=1;" parent="1" vertex="1">
                    <mxGeometry x="510.5" y="1105" width="60" height="25" as="geometry"/>
                </mxCell>
                <mxCell id="hMF7HG-Jt5NQ6egZfnup-18" value="Shapemover" style="shape=cross;whiteSpace=wrap;html=1;fillColor=#6a00ff;strokeColor=#3700CC;fontColor=#ffffff;size=0.1541656494140625;shadow=1;" parent="1" vertex="1">
                    <mxGeometry x="334" y="1040" width="80" height="80" as="geometry"/>
                </mxCell>
                <mxCell id="hMF7HG-Jt5NQ6egZfnup-27" value="&lt;font style=&quot;font-size: 18px&quot;&gt;Screen&lt;br&gt;22/10&lt;/font&gt;" style="text;html=1;strokeColor=none;fillColor=none;align=center;verticalAlign=middle;whiteSpace=wrap;rounded=0;" parent="1" vertex="1">
                    <mxGeometry x="1221" y="20" width="40" height="20" as="geometry"/>
                </mxCell>
                <mxCell id="hMF7HG-Jt5NQ6egZfnup-34" value="&lt;u&gt;&lt;b&gt;Gamingscreen&lt;/b&gt;&lt;/u&gt;" style="rounded=0;whiteSpace=wrap;html=1;strokeColor=#0e8088;aspect=fixed;fillColor=#2F29F0;" parent="1" vertex="1">
                    <mxGeometry x="1166" y="155" width="150" height="300" as="geometry"/>
                </mxCell>
                <mxCell id="hMF7HG-Jt5NQ6egZfnup-40" value="rotate&lt;br&gt;right" style="rhombus;whiteSpace=wrap;html=1;strokeColor=#C73500;fillColor=#fa6800;fontColor=#ffffff;rounded=1;shadow=1;" parent="1" vertex="1">
                    <mxGeometry x="1470" y="325" width="80" height="80" as="geometry"/>
                </mxCell>
                <mxCell id="hMF7HG-Jt5NQ6egZfnup-41" value="rotate&lt;br&gt;left" style="rhombus;whiteSpace=wrap;html=1;strokeColor=#C73500;fillColor=#fa6800;fontColor=#ffffff;rounded=1;shadow=1;" parent="1" vertex="1">
                    <mxGeometry x="1370" y="365" width="80" height="80" as="geometry"/>
                </mxCell>
                <mxCell id="hMF7HG-Jt5NQ6egZfnup-44" value="Id/Nickname" style="rounded=0;whiteSpace=wrap;html=1;strokeColor=#000000;fillColor=none;" parent="1" vertex="1">
                    <mxGeometry x="920" y="155" width="245" height="40" as="geometry"/>
                </mxCell>
                <mxCell id="5Syy-ZLxnMgxCQeKFp7M-3" value="" style="rounded=0;whiteSpace=wrap;html=1;fillColor=#000000;" parent="1" vertex="1">
                    <mxGeometry x="920" y="150" width="640" height="5" as="geometry"/>
                </mxCell>
                <mxCell id="5Syy-ZLxnMgxCQeKFp7M-4" value="" style="rounded=0;whiteSpace=wrap;html=1;direction=south;fillColor=#000000;" parent="1" vertex="1">
                    <mxGeometry x="1080" y="660" width="5" height="660" as="geometry"/>
                </mxCell>
                <mxCell id="5Syy-ZLxnMgxCQeKFp7M-5" value="" style="rounded=0;whiteSpace=wrap;html=1;fillColor=#000000;" parent="1" vertex="1">
                    <mxGeometry x="920" y="455" width="639" height="5" as="geometry"/>
                </mxCell>
                <mxCell id="5Syy-ZLxnMgxCQeKFp7M-6" value="" style="rounded=0;whiteSpace=wrap;html=1;direction=south;fillColor=#000000;" parent="1" vertex="1">
                    <mxGeometry x="1385" y="660" width="5" height="660" as="geometry"/>
                </mxCell>
                <mxCell id="5Syy-ZLxnMgxCQeKFp7M-7" value="" style="rounded=0;whiteSpace=wrap;html=1;fillColor=#000000;" parent="1" vertex="1">
                    <mxGeometry x="175" y="165" width="480" height="5" as="geometry"/>
                </mxCell>
                <mxCell id="5Syy-ZLxnMgxCQeKFp7M-8" value="" style="rounded=0;whiteSpace=wrap;html=1;fillColor=#000000;" parent="1" vertex="1">
                    <mxGeometry x="174.5" y="440" width="480" height="5" as="geometry"/>
                </mxCell>
                <mxCell id="5Syy-ZLxnMgxCQeKFp7M-9" value="" style="rounded=0;whiteSpace=wrap;html=1;fillColor=#000000;direction=south;" parent="1" vertex="1">
                    <mxGeometry x="570.5" y="660" width="5" height="480" as="geometry"/>
                </mxCell>
                <mxCell id="5Syy-ZLxnMgxCQeKFp7M-10" value="" style="rounded=0;whiteSpace=wrap;html=1;fillColor=#000000;direction=south;" parent="1" vertex="1">
                    <mxGeometry x="296" y="660" width="5" height="480" as="geometry"/>
                </mxCell>
                <mxCell id="5Syy-ZLxnMgxCQeKFp7M-12" value="Level/Speed" style="rounded=0;whiteSpace=wrap;html=1;strokeColor=#000000;fillColor=none;" parent="1" vertex="1">
                    <mxGeometry x="920" y="195" width="245" height="40" as="geometry"/>
                </mxCell>
                <mxCell id="5Syy-ZLxnMgxCQeKFp7M-18" value="Shapemover" style="shape=cross;whiteSpace=wrap;html=1;fillColor=#76608a;strokeColor=#432D57;fontColor=#ffffff;shadow=1;" parent="1" vertex="1">
                    <mxGeometry x="980" y="325" width="98" height="100" as="geometry"/>
                </mxCell>
                <mxCell id="5Syy-ZLxnMgxCQeKFp7M-19" value="Next shapes" style="rounded=0;whiteSpace=wrap;html=1;strokeColor=#000000;fillColor=none;" parent="1" vertex="1">
                    <mxGeometry x="920" y="235" width="245" height="40" as="geometry"/>
                </mxCell>
                <mxCell id="5Syy-ZLxnMgxCQeKFp7M-20" value="Highscore" style="rounded=0;whiteSpace=wrap;html=1;strokeColor=#000000;fillColor=none;" parent="1" vertex="1">
                    <mxGeometry x="1316" y="155" width="245" height="40" as="geometry"/>
                </mxCell>
                <mxCell id="5Syy-ZLxnMgxCQeKFp7M-21" value="Personal score/highscore" style="rounded=0;whiteSpace=wrap;html=1;strokeColor=#000000;fillColor=none;" parent="1" vertex="1">
                    <mxGeometry x="1316" y="195" width="245" height="40" as="geometry"/>
                </mxCell>
                <mxCell id="5Syy-ZLxnMgxCQeKFp7M-22" value="Gamingscreen" style="rounded=0;whiteSpace=wrap;html=1;fillColor=#2F29F0;aspect=fixed;strokeColor=#10739e;" parent="1" vertex="1">
                    <mxGeometry x="1085" y="660" width="200" height="400" as="geometry"/>
                </mxCell>
                <mxCell id="5Syy-ZLxnMgxCQeKFp7M-23" value="Highscore" style="rounded=0;whiteSpace=wrap;html=1;fillColor=none;" parent="1" vertex="1">
                    <mxGeometry x="1285" y="660" width="100" height="75" as="geometry"/>
                </mxCell>
                <mxCell id="5Syy-ZLxnMgxCQeKFp7M-24" value="Personal&lt;br&gt;&amp;nbsp;score/&lt;br&gt;highscore" style="rounded=0;whiteSpace=wrap;html=1;fillColor=none;" parent="1" vertex="1">
                    <mxGeometry x="1285" y="735" width="100" height="75" as="geometry"/>
                </mxCell>
                <mxCell id="5Syy-ZLxnMgxCQeKFp7M-25" value="Next shapes" style="rounded=0;whiteSpace=wrap;html=1;fillColor=none;" parent="1" vertex="1">
                    <mxGeometry x="1285" y="810" width="100" height="100" as="geometry"/>
                </mxCell>
                <mxCell id="5Syy-ZLxnMgxCQeKFp7M-26" value="Level/speed" style="rounded=0;whiteSpace=wrap;html=1;fillColor=none;" parent="1" vertex="1">
                    <mxGeometry x="1285" y="910" width="100" height="75" as="geometry"/>
                </mxCell>
                <mxCell id="5Syy-ZLxnMgxCQeKFp7M-27" value="Id/Nickname" style="rounded=0;whiteSpace=wrap;html=1;fillColor=none;" parent="1" vertex="1">
                    <mxGeometry x="1285" y="985" width="100" height="75" as="geometry"/>
                </mxCell>
                <mxCell id="5Syy-ZLxnMgxCQeKFp7M-28" value="rotate&lt;br&gt;left" style="rhombus;whiteSpace=wrap;html=1;rounded=1;fillColor=#fa6800;strokeColor=#C73500;fontColor=#ffffff;shadow=1;" parent="1" vertex="1">
                    <mxGeometry x="1236" y="1210" width="80" height="80" as="geometry"/>
                </mxCell>
                <mxCell id="5Syy-ZLxnMgxCQeKFp7M-29" value="rotate&lt;br&gt;right" style="rhombus;whiteSpace=wrap;html=1;rounded=1;fillColor=#fa6800;strokeColor=#C73500;fontColor=#ffffff;shadow=1;" parent="1" vertex="1">
                    <mxGeometry x="1305" y="1130" width="80" height="80" as="geometry"/>
                </mxCell>
                <mxCell id="5Syy-ZLxnMgxCQeKFp7M-30" value="Pause/settings" style="rounded=0;whiteSpace=wrap;html=1;fillColor=#FFFFFF;shadow=1;" parent="1" vertex="1">
                    <mxGeometry x="1480" y="430" width="80" height="25" as="geometry"/>
                </mxCell>
                <mxCell id="5Syy-ZLxnMgxCQeKFp7M-31" value="Pause/settings" style="rounded=0;whiteSpace=wrap;html=1;fillColor=#FFFFFF;shadow=1;" parent="1" vertex="1">
                    <mxGeometry x="1295" y="1290" width="90" height="20" as="geometry"/>
                </mxCell>
                <mxCell id="5Syy-ZLxnMgxCQeKFp7M-32" value="shapemover" style="shape=cross;whiteSpace=wrap;html=1;rounded=1;shadow=1;fillColor=#76608a;strokeColor=#432D57;fontColor=#ffffff;size=0.16;" parent="1" vertex="1">
                    <mxGeometry x="1110" y="1190" width="100" height="110" as="geometry"/>
                </mxCell>
            </root>
        </mxGraphModel>
    </diagram>
</mxfile>